# xmcd CD database file
#
# Track frame offsets:
#	150
#	17745
#	37085
#	48925
#	66905
#	89050
#	103110
#	115012
#	129702
#	144215
#	162342
#	176542
#	193695
#	208100
#
# Disc length: 2965 seconds
#
# Revision: 2
# Processed by: cddbd v1.4PL0 Copyright (c) Steve Scherf et al.
# Submitted via: CDex 1.40Beta9
#
DISCID=ca0b930e
DTITLE=Edson and Hudson - Edson and Hudson
DYEAR=1900
DGENRE=Country
TTITLE0=MÚSICA NO AR (ANY MAN OF MINE)
TTITLE1=OUTRA VEZ A PAIXÃO (I NEVER LOST YOU)
TTITLE2=FESTA LOUCA (MI VIDA LOCA - MY CRAZY LIFE)
TTITLE3=VAI E VEM
TTITLE4=EU NÃO SOU COMO ELE
TTITLE5=OS DOIS LADOS DA VIDA
TTITLE6=SE FICAR O BICHO COME (WINK)
TTITLE7=TE DAR TRISTEZA NUNCA MAIS (CAN'T BE REALLY GONE)
TTITLE8=PRA QUE SE ENGANAR (SHE'S GOT A MIND OF HER OWN)
TTITLE9=EU JÁ CHOREI DEMAIS (PLEASE DON'T LEAVE ME NOW)
TTITLE10=VAI SER PIOR TENTAR OUTRA VEZ (WHAT'S IN IT FOR ME)
TTITLE11=NO EMBALO DA CANÇÃO
TTITLE12=TE QUERO PRA MIM (IT MATTERS TO ME)
TTITLE13=BRIGA DE SALÃO (COWBOY LOVE)
EXTD=ID3G: 2
EXTT0=
EXTT1=
EXTT2=
EXTT3=
EXTT4=
EXTT5=
EXTT6=
EXTT7=
EXTT8=
EXTT9=
EXTT10=
EXTT11=
EXTT12=
EXTT13=
PLAYORDER=
